<svg xmlns="http://www.w3.org/2000/svg" xmlns:xlink="http://www.w3.org/1999/xlink" width="16" height="16" viewBox="0 0 16 16" fill="none">
<g filter="url(#filter_0aaccd06-478a-449b-9ca8-8ec1a28359a1)">
</g>
<path d="M8 16C7.83092 16 7.66184 15.9708 7.49276 15.9124C7.32368 15.854 7.17073 15.7636 7.0339 15.6413C6.25524 14.9238 5.52664 14.1849 4.84808 13.4246C4.16952 12.6643 3.57968 11.9042 3.07855 11.1445C2.57741 10.3847 2.18085 9.63161 1.88885 8.8852C1.59684 8.13878 1.45083 7.41795 1.45083 6.7227Q1.45083 3.71928 3.3939 1.85964C4.68926 0.619881 6.22463 0 8 0C9.77537 0 11.3107 0.619881 12.6061 1.85964C13.9014 3.0994 14.5491 4.72042 14.5491 6.7227C14.5491 7.41795 14.4031 8.13739 14.1111 8.88104C13.8191 9.62467 13.4239 10.3778 12.9256 11.1403C12.4272 11.9028 11.8388 12.6629 11.1603 13.4204C10.4817 14.1779 9.7531 14.9154 8.97443 15.6329C8.83961 15.7553 8.6864 15.8471 8.51481 15.9082C8.3432 15.9694 8.17159 16 8 16ZM8.00002 14.762C9.69752 13.2425 10.9965 11.785 11.897 10.3895C12.7975 8.99401 13.2477 7.77177 13.2477 6.72278C13.2477 5.14097 12.7452 3.84059 11.7402 2.82163C10.7351 1.80268 9.4884 1.2932 8.00002 1.2932C6.51165 1.2932 5.26494 1.80268 4.2599 2.82163C3.25485 3.84059 2.75233 5.14097 2.75233 6.72278C2.75233 7.77177 3.20257 8.99401 4.10304 10.3895C5.00353 11.785 6.30253 13.2425 8.00002 14.762ZM9.10875 7.66485C8.80229 7.97229 8.43319 8.12601 8.00146 8.12601C7.56972 8.12601 7.20014 7.97278 6.8927 7.66632C6.58525 7.35986 6.43153 6.99076 6.43153 6.55903C6.43153 6.12729 6.58476 5.75771 6.89122 5.45026C7.19768 5.14282 7.56677 4.9891 7.99851 4.9891Q8.64611 4.9891 9.10728 5.44879C9.41472 5.75525 9.56844 6.12434 9.56844 6.55608Q9.56844 7.20367 9.10875 7.66485Z" fill-rule="evenodd"  fill="#55BDB9" >
</path>
<defs>
<filter id="filter_0aaccd06-478a-449b-9ca8-8ec1a28359a1" x="0" y="0" width="16" height="16" filterUnits="userSpaceOnUse" color-interpolation-filters="sRGB">
<feFlood flood-opacity="0" result="feFloodId_0aaccd06-478a-449b-9ca8-8ec1a28359a1"/>
<feGaussianBlur in="feFloodId_0aaccd06-478a-449b-9ca8-8ec1a28359a1" stdDeviation_bg="10" type="BackgroundImage" />
<feComposite in2="SourceAlpha" operator="in" result="background_Blur_0aaccd06-478a-449b-9ca8-8ec1a28359a1"/>
<feBlend mode="normal" in="SourceGraphic" in2="background_Blur_0aaccd06-478a-449b-9ca8-8ec1a28359a1" result="shape_0aaccd06-478a-449b-9ca8-8ec1a28359a1"/>
</filter>
</defs>
</svg>
