<svg xmlns="http://www.w3.org/2000/svg" xmlns:xlink="http://www.w3.org/1999/xlink" width="30" height="22" viewBox="0 0 30 22" fill="none">
<path d="M28.57 0L1.43 0C0.637822 0 0 0.637761 0 1.43L0 20.57C0 21.3622 0.637822 22 1.43 22L28.57 22C29.3622 22 30 21.3622 30 20.57L30 1.43C30 0.637761 29.3622 0 28.57 0ZM7 3C9.20917 3 11 4.79083 11 7C11 9.20911 9.20917 11 7 11C4.79083 11 3 9.20911 3 7C3 4.79083 4.79083 3 7 3ZM7.41 18.79L4 18.79C3.44775 18.79 3 18.3422 3 17.79C3 17.2377 3.44775 16.79 4 16.79L7.41 16.79C7.96225 16.79 8.41 17.2377 8.41 17.79C8.41 18.3422 7.96225 18.79 7.41 18.79ZM10.82 15.04L4 15.04C3.44775 15.04 3 14.5922 3 14.04C3 13.4877 3.44775 13.04 4 13.04L10.82 13.04C11.3723 13.04 11.82 13.4877 11.82 14.04C11.82 14.5922 11.3723 15.04 10.82 15.04Z" fill-rule="evenodd"  fill="url(#linear_fill_52c4858d-71a0-4131-bba4-39a4bd77ed8a)" >
</path>
<defs>
<linearGradient id="linear_fill_52c4858d-71a0-4131-bba4-39a4bd77ed8a" x1="-3.450439453125" y1="-1.875" x2="34.244873046875" y2="22" gradientUnits="userSpaceOnUse">
<stop offset="0" stop-color="#FAEFAF"  />
<stop offset="1" stop-color="#D19E11"  />
</linearGradient>
</defs>
</svg>
