<svg xmlns="http://www.w3.org/2000/svg" xmlns:xlink="http://www.w3.org/1999/xlink" width="16" height="16" viewBox="0 0 16 16" fill="none">
<rect  x="0" y="0" width="16" height="16" rx="3"    fill="#FFFFFF" >
</rect>
<rect x="5" y="5" width="6" height="6"   fill="#000000" fill-opacity="0">
</rect>
<path d="M9.831 6.32409C10.1345 5.96958 10.6543 5.89629 11.044 6.15309C11.2254 6.26554 11.3498 6.45039 11.3858 6.66074C11.4217 6.8711 11.3657 7.08677 11.232 7.25308L8.545 10.6001C8.40029 10.7733 8.1914 10.8803 7.96626 10.8965C7.74111 10.9127 7.51905 10.8368 7.351 10.6861L5.254 8.77108C5.09262 8.63036 4.99999 8.4267 4.99999 8.21258C4.99999 7.99846 5.09262 7.7948 5.254 7.65408C5.60515 7.34542 6.13086 7.34542 6.482 7.65408L7.8 8.85308L9.831 6.32409Z"   fill="#58C5E6" >
</path>
</svg>
