<svg xmlns="http://www.w3.org/2000/svg" xmlns:xlink="http://www.w3.org/1999/xlink" width="30" height="22" viewBox="0 0 30 22" fill="none">
<path d="M28.5656 0L1.43439 0C0.642212 0 0 0.642151 0 1.43439L0 20.5655C0 21.3577 0.642212 22 1.43439 22L28.5656 22C29.3578 22 30 21.3577 30 20.5655L30 1.43439C30 0.642151 29.3578 0 28.5656 0ZM7 3C9.20917 3 11 4.79083 11 7C11 9.20911 9.20917 11 7 11C4.79083 11 3 9.20911 3 7C3 4.79083 4.79083 3 7 3ZM7.41211 18.793L4 18.793C3.44775 18.793 3 18.3452 3 17.793C3 17.2407 3.44775 16.793 4 16.793L7.41211 16.793C7.96436 16.793 8.41211 17.2407 8.41211 17.793C8.41211 18.3452 7.96436 18.793 7.41211 18.793ZM10.8237 15.043L4 15.043C3.44775 15.043 3 14.5952 3 14.043C3 13.4907 3.44775 13.043 4 13.043L10.8237 13.043C11.376 13.043 11.8237 13.4907 11.8237 14.043C11.8237 14.5952 11.376 15.043 10.8237 15.043Z"   fill="url(#linear_fill_cd60accf-89fd-46d2-872f-c0aa53f0deef)" >
</path>
<defs>
<linearGradient id="linear_fill_cd60accf-89fd-46d2-872f-c0aa53f0deef" x1="-3.450439453125" y1="-1.875" x2="34.244873046875" y2="22" gradientUnits="userSpaceOnUse">
<stop offset="0" stop-color="#E6E6E6"  />
<stop offset="1" stop-color="#7E7E7E"  />
</linearGradient>
</defs>
</svg>
