<?xml version="1.0" standalone="no"?><!DOCTYPE svg PUBLIC "-//W3C//DTD SVG 1.1//EN" "http://www.w3.org/Graphics/SVG/1.1/DTD/svg11.dtd"><svg t="1731324475299" class="icon" viewBox="0 0 1024 1024" version="1.1" xmlns="http://www.w3.org/2000/svg" p-id="5146" width="32" height="32" xmlns:xlink="http://www.w3.org/1999/xlink"><path d="M513.58 871.67c-3.09 0-6.16-0.49-9.11-1.47C359 821.87 99.17 621.1 99.17 393.15c0-132.86 108.08-240.94 240.94-240.94 65.81 0 128.38 27.03 173.48 73.75 45.08-46.72 107.65-73.75 173.48-73.75C819.91 152.21 928 260.29 928 393.15c0 227.95-259.84 428.72-405.3 477.06-2.96 0.97-6.03 1.46-9.12 1.46zM340.1 210.03c-100.97 0-183.11 82.15-183.11 183.11 0 192.79 227.08 371.23 356.59 418.97 129.5-47.74 356.59-226.18 356.59-418.97 0-100.97-82.15-183.11-183.11-183.11-59.5 0-115.52 29.1-149.83 77.82-10.84 15.36-36.44 15.44-47.28 0-34.35-48.72-90.36-77.82-149.85-77.82z" fill="#ffffff" p-id="5147"></path></svg>