<svg xmlns="http://www.w3.org/2000/svg" xmlns:xlink="http://www.w3.org/1999/xlink" width="42" height="42" viewBox="0 0 42 42" fill="none">
<circle cx="21" cy="21" r="21"   fill="#FFFFFF" >
</circle>
<path d="M21.2496 31.417C20.8934 31.5441 20.3067 31.5441 19.9505 31.417C16.9122 30.3674 10.123 25.9894 10.123 18.569C10.123 15.2934 12.7318 12.6432 15.9483 12.6432C17.8551 12.6432 19.5419 13.5761 20.6 15.0178C21.6582 13.5761 23.3555 12.6432 25.2518 12.6432C28.4683 12.6432 31.0771 15.2934 31.0771 18.569C31.0771 25.9894 24.2879 30.3674 21.2496 31.417Z" stroke="rgba(235, 102, 133, 1)" stroke-width="1.7999999523162842" stroke-linejoin="round" stroke-linecap="round"    fill="#EA6684" >
</path>
<g opacity="0">
<path d="M8.22754 9.70538L27.8172 9.70538L32.9724 9.70538L32.9724 34.4503L8.22754 34.4503L8.22754 9.70538Z"   fill="#EA6684" >
</path>
</g>
</svg>
