<svg xmlns="http://www.w3.org/2000/svg" xmlns:xlink="http://www.w3.org/1999/xlink" width="26" height="20.62060546875" viewBox="0 0 26 20.62060546875" fill="none">
<path d="M13.8965 9.41398L12.5516 9.41398C12.0565 9.41398 11.6551 9.01258 11.6551 8.51743C11.6551 8.02228 12.0565 7.62087 12.5516 7.62087L15.2413 7.62087C15.7364 7.62087 16.1378 7.21948 16.1378 6.72433C16.1378 6.22917 15.7364 5.82777 15.2413 5.82777L13.8965 5.82777L13.8965 4.93122C13.8965 4.43607 13.4951 4.03467 12.9999 4.03467C12.5048 4.03467 12.1034 4.43607 12.1034 4.93122L12.1034 5.86812C10.732 6.10822 9.7705 7.35516 9.88699 8.74251C10.0035 10.1299 11.1594 11.199 12.5516 11.2071L13.8965 11.2071C14.3916 11.2071 14.793 11.6085 14.793 12.1036C14.793 12.5988 14.3916 13.0002 13.8965 13.0002L11.2068 13.0002C10.7117 13.0002 10.3103 13.4016 10.3103 13.8967C10.3103 14.3919 10.7117 14.7933 11.2068 14.7933L12.1034 14.7933L12.1034 15.6899C12.1034 16.185 12.5048 16.5864 12.9999 16.5864C13.4951 16.5864 13.8965 16.185 13.8965 15.6899L13.8965 14.7933C15.3819 14.7933 16.5861 13.5891 16.5861 12.1036C16.5861 10.6182 15.3819 9.41398 13.8965 9.41398Z"   fill="#1C9663" >
</path>
<path d="M23.2655 0L2.73448 0C1.22529 0.00246811 0.00246811 1.22529 0 2.73448L0 17.8862C0.00246859 19.3954 1.22529 20.6182 2.73448 20.6207L23.2655 20.6207C24.7747 20.6182 25.9975 19.3954 26 17.8862L26 2.73448C25.9975 1.22529 24.7747 0.00246906 23.2655 0L23.2655 0ZM24.2069 17.8862C24.2069 18.4061 23.7854 18.8276 23.2655 18.8276L2.73448 18.8276C2.21457 18.8276 1.7931 18.4061 1.7931 17.8862L1.7931 2.73448C1.7931 2.21457 2.21457 1.7931 2.73448 1.7931L23.2655 1.7931C23.7854 1.7931 24.2069 2.21457 24.2069 2.73448L24.2069 17.8862Z"   fill="#1C9663" >
</path>
</svg>
