<svg xmlns="http://www.w3.org/2000/svg" xmlns:xlink="http://www.w3.org/1999/xlink" width="28.00048828125" height="28" viewBox="0 0 28.00048828125 28" fill="none">
<path d="M28.0005 25.666L28.0005 4.95785C28.0005 3.669 26.9566 2.62514 25.6677 2.62514L21.8754 2.62514L21.8754 0.875181C21.8754 0.391313 21.4842 0.0002 21.0004 0.0002C20.5165 0.0002 20.1253 0.391313 20.1253 0.875181L20.1253 2.62514L14.8753 2.62514L14.8753 0.875181C14.8753 0.391313 14.4833 0.0002 14.0002 0.0002C13.5172 0.0002 13.1252 0.391313 13.1252 0.875181L13.1252 2.62514L7.87514 2.62514L7.87514 0.875181C7.87514 0.391313 7.48313 0.0002 7.00012 0.0002C6.51711 0.0002 6.12511 0.391313 6.12511 0.875181L6.12511 2.62514L2.33366 2.62514C1.04477 2.62514 0 3.669 0 4.95785L0 25.666C0 26.9548 1.04476 27.9996 2.33366 27.9996L25.6677 27.9996C26.9566 27.9996 28.0005 26.9549 28.0005 25.666ZM25.6677 26.2496C25.9888 26.2496 26.2504 25.988 26.2504 25.666L26.2504 4.95784C26.2504 4.63672 25.9888 4.3751 25.6677 4.3751L21.8753 4.3751L21.8753 6.12506C21.8753 6.60893 21.4842 7.00004 21.0003 7.00004C20.5164 7.00004 20.1253 6.60893 20.1253 6.12506L20.1253 4.3751L14.8752 4.3751L14.8752 6.12506C14.8752 6.60893 14.4832 7.00004 14.0002 7.00004C13.5172 7.00004 13.1252 6.60893 13.1252 6.12506L13.1252 4.3751L7.87511 4.3751L7.87511 6.12506C7.87511 6.60893 7.4831 7.00004 7.00009 7.00004C6.51708 7.00004 6.12508 6.60893 6.12508 6.12506L6.12508 4.3751L2.33363 4.3751C2.01163 4.3751 1.75 4.63673 1.75 4.95784L1.75 25.666C1.75 25.988 2.01163 26.2496 2.33363 26.2496L25.6677 26.2496Z" fill-rule="evenodd"  fill="#FFFFFF" >
</path>
<rect x="6.701416015625" y="10.53887939453125" width="3.461174249649048" height="2.5958807468414307"   fill="#FFFFFF" >
</rect>
<rect x="6.701416015625" y="14.86529541015625" width="3.461174249649048" height="2.5958807468414307"   fill="#FFFFFF" >
</rect>
<rect x="6.701416015625" y="19.1917724609375" width="3.461174249649048" height="2.5958807468414307"   fill="#FFFFFF" >
</rect>
<rect x="12.75830078125" y="19.1917724609375" width="3.461174249649048" height="2.5958807468414307"   fill="#FFFFFF" >
</rect>
<rect x="12.75830078125" y="14.86529541015625" width="3.461174249649048" height="2.5958807468414307"   fill="#FFFFFF" >
</rect>
<rect x="12.75830078125" y="10.53887939453125" width="3.461174249649048" height="2.5958807468414307"   fill="#FFFFFF" >
</rect>
<rect x="18.8154296875" y="19.1917724609375" width="3.461174249649048" height="2.5958807468414307"   fill="#FFFFFF" >
</rect>
<rect x="18.8154296875" y="14.86529541015625" width="3.461174249649048" height="2.5958807468414307"   fill="#FFFFFF" >
</rect>
<rect x="18.8154296875" y="10.53887939453125" width="3.461174249649048" height="2.5958807468414307"   fill="#FFFFFF" >
</rect>
</svg>
