<svg xmlns="http://www.w3.org/2000/svg" xmlns:xlink="http://www.w3.org/1999/xlink" width="42" height="42" viewBox="0 0 42 42" fill="none">
<circle  cx="21" cy="21" r="21"    fill="#F9B300" >
</circle>
<path fill-rule="evenodd"  fill="rgba(255, 255, 255, 1)"  d="M21 42C32.598 42 42 32.598 42 21C42 9.40202 32.598 0 21 0C9.40202 0 0 9.40202 0 21C0 32.598 9.40202 42 21 42ZM21 2C31.4934 2 40 10.5066 40 21C40 31.4934 31.4934 40 21 40C10.5066 40 2 31.4934 2 21C2 10.5066 10.5066 2 21 2Z">
</path>
<path d="M32.9819 15.8259L30.8889 17.9188C30.6755 18.1322 30.3305 18.1322 30.1171 17.9188L25.0777 12.8794C24.8643 12.666 24.8643 12.321 25.0777 12.1076L27.1706 10.0147C28.0196 9.16568 29.3998 9.16568 30.2533 10.0147L32.9819 12.7432C33.8354 13.5922 33.8354 14.9724 32.9819 15.8259ZM23.2799 13.9055L11.3577 25.8275L10.3953 31.3436C10.2636 32.0882 10.9128 32.7329 11.6574 32.6058L17.1735 31.6387L29.0956 19.7167C29.309 19.5033 29.309 19.1583 29.0956 18.9449L24.0562 13.9055C23.8383 13.6921 23.4932 13.6921 23.2799 13.9055L23.2799 13.9055ZM16.0113 24.806C15.7616 24.5563 15.7616 24.1568 16.0113 23.9071L23.0029 16.9155C23.2526 16.6658 23.6521 16.6658 23.9018 16.9155C24.1515 17.1652 24.1515 17.5647 23.9018 17.8144L16.9102 24.806C16.6605 25.0557 16.261 25.0557 16.0113 24.806L16.0113 24.806ZM14.3723 28.6242L16.5515 28.6242L16.5515 30.2722L13.6232 30.7852L12.2113 29.3733L12.7243 26.445L14.3723 26.445L14.3723 28.6242Z"   fill="#FFFFFF" >
</path>
</svg>
