<svg xmlns="http://www.w3.org/2000/svg" xmlns:xlink="http://www.w3.org/1999/xlink" width="31.8359375" height="32.6962890625" viewBox="0 0 31.8359375 32.6962890625" fill="none">
<path d="M22.0716 0.021615C22.5765 -0.0472327 23.1081 0.0483891 23.548 0.308481C24.1409 0.648894 24.5616 1.2647 24.661 1.9417C24.7567 2.55368 24.5922 3.20009 24.2097 3.68584C23.8846 4.11423 23.3988 4.4164 22.871 4.52732C22.347 4.63441 21.7847 4.56174 21.3104 4.30165C20.8515 4.05686 20.4766 3.64377 20.2816 3.15419C20.0176 2.51543 20.0635 1.75046 20.4116 1.14995C20.7558 0.545623 21.3831 0.117237 22.0716 0.021615ZM12.1269 1.31442C14.5863 0.713917 17.1911 0.710092 19.6505 1.30295C19.4669 1.82313 19.421 2.39686 19.551 2.93617C19.7155 3.67819 20.1898 4.34372 20.8285 4.74916C21.3181 5.0628 21.8995 5.22727 22.477 5.20432C23.5021 5.19284 24.4813 4.57704 24.967 3.68202C27.3308 5.31524 29.2432 7.59869 30.4251 10.2187C31.6376 12.8808 32.0775 15.8795 31.7103 18.775C31.4425 20.9475 30.712 23.0627 29.5875 24.9368C27.7821 27.97 24.9403 30.372 21.6432 31.6342C19.2833 32.5483 16.7015 32.8773 14.1847 32.6019C11.2243 32.2883 8.36325 31.114 6.03391 29.259C3.66249 27.3809 1.83802 24.8183 0.858854 21.9573C-0.407178 18.2892 -0.269483 14.1622 1.24517 10.5936C2.10959 8.54343 3.41004 6.68072 5.03179 5.16225C7.0169 3.29953 9.48394 1.957 12.1269 1.31442L12.1269 1.31442ZM12.0581 4.49672C10.9412 5.01308 9.97353 5.85837 9.35772 6.92551C8.71897 8.01943 8.4627 9.30458 8.52773 10.563C8.57745 11.5727 8.85284 12.5902 9.42275 13.4354C9.85113 14.0819 10.4402 14.6097 11.098 15.0113C10.2298 15.4588 9.40745 16.0478 8.86049 16.8702C8.45505 17.4745 8.25234 18.228 8.37856 18.9547C8.4627 19.4673 8.74957 19.9301 9.12823 20.2743C9.61399 20.718 10.1992 21.0278 10.7806 21.3223C10.1189 21.5442 9.45335 21.8005 8.87579 22.1982C8.45123 22.4889 8.08022 22.8676 7.85837 23.3304C7.56003 23.9347 7.52561 24.6309 7.60211 25.2887C7.68243 25.9543 7.9387 26.6007 8.35943 27.1247C8.79929 27.6831 9.39597 28.0962 10.0309 28.3984C10.727 28.7235 11.4767 28.93 12.2302 29.0677C13.1864 29.2398 14.1618 29.3049 15.1333 29.3202C16.6709 29.3316 18.2238 29.2169 19.704 28.7885C20.8285 28.4634 21.9263 27.9356 22.741 27.0788C23.265 26.5471 23.6436 25.8778 23.8502 25.1587C24.0758 24.3784 24.095 23.5522 24.007 22.7452C23.9305 22.072 23.7354 21.3912 23.3262 20.8404C22.9781 20.3661 22.4923 20.0066 21.9645 19.7541C21.2416 19.4137 20.4575 19.2301 19.6734 19.0963C17.9101 18.7979 16.1124 18.7788 14.3377 18.6029C13.9131 18.5531 13.4809 18.4996 13.0831 18.3466C12.8345 18.2471 12.5897 18.0827 12.4903 17.8226C12.387 17.551 12.3985 17.2221 12.5553 16.9696C12.7542 16.6407 13.0946 16.438 13.435 16.2812C13.5039 16.2582 13.5689 16.2085 13.6416 16.2123C14.5328 16.4189 15.4546 16.4495 16.3611 16.3921C17.7495 16.3041 19.157 15.9369 20.3045 15.1184C20.8515 14.7283 21.3257 14.2387 21.6853 13.6688C22.1749 12.9 22.4426 12.0049 22.5153 11.1023C22.5688 10.41 22.5344 9.71002 22.412 9.02537C22.1481 7.64076 21.3602 6.38621 20.3007 5.46824C19.0652 4.4011 17.4435 3.83501 15.8218 3.77764C14.5366 3.73557 13.2247 3.94594 12.0581 4.49672L12.0581 4.49672ZM15.0377 7.14353C15.6343 7.05938 16.2578 7.12441 16.8277 7.3386C17.4053 7.55662 17.9101 7.9697 18.2199 8.50519C18.5986 9.14776 18.6942 9.92804 18.6024 10.6624C18.5183 11.2859 18.2505 11.8978 17.7839 12.3301C17.2178 12.8808 16.4108 13.118 15.6343 13.1142C14.8923 13.1142 14.1197 12.942 13.5421 12.4563C13.0411 12.0432 12.7542 11.4159 12.6701 10.7772C12.5859 10.1002 12.6395 9.39256 12.9149 8.76145C13.1405 8.21832 13.5498 7.75169 14.0661 7.46865C14.3645 7.30035 14.6972 7.19325 15.0377 7.14353L15.0377 7.14353ZM13.5039 22.2709C13.5574 22.2441 13.6148 22.225 13.676 22.2365C15.0797 22.313 16.4835 22.3818 17.8872 22.4583C18.3462 22.4928 18.809 22.5425 19.2412 22.7069C19.5587 22.8255 19.8685 23.0359 20.0062 23.3572C20.1783 23.7588 20.1515 24.2407 19.945 24.6232C19.7002 25.0707 19.2641 25.3805 18.8166 25.5985C18.1932 25.8931 17.5124 26.0499 16.8315 26.1379C16.1928 26.2182 15.5464 26.245 14.9 26.2182C14.1924 26.1838 13.4771 26.0614 12.8384 25.7477C12.4291 25.5412 12.0466 25.2352 11.8515 24.8106C11.6373 24.3402 11.6756 23.7511 12.0007 23.3381C12.387 22.8446 12.9531 22.5463 13.5039 22.2709L13.5039 22.2709Z" fill-rule="evenodd"  fill="#003C71" >
</path>
</svg>
