<svg xmlns="http://www.w3.org/2000/svg" xmlns:xlink="http://www.w3.org/1999/xlink" width="32" height="32" viewBox="0 0 32 32" fill="none">
<path   fill-rule="evenodd"  fill="#595959"  d="M16.0017 27.3367C22.2618 27.3367 27.3367 22.2618 27.3367 16.0017C27.3367 9.74154 22.2618 4.66669 16.0017 4.66669C9.74151 4.66669 4.66666 9.74154 4.66666 16.0017C4.66666 22.2618 9.74151 27.3367 16.0017 27.3367ZM19.3155 11.3333C19.3155 13.1743 17.8231 14.6667 15.9822 14.6667C14.1412 14.6667 12.6489 13.1743 12.6489 11.3333C12.6489 9.49237 14.1412 7.99999 15.9822 7.99999C17.8231 7.99999 19.3155 9.49237 19.3155 11.3333ZM22.5049 21C22.5049 23.2091 19.5947 25 16.0049 25C12.415 25 9.50486 23.2091 9.50486 21C9.50486 18.7908 12.415 17 16.0049 17C19.5947 17 22.5049 18.7908 22.5049 21Z">
</path>
</svg>
