<svg xmlns="http://www.w3.org/2000/svg" xmlns:xlink="http://www.w3.org/1999/xlink" width="30.39697265625" height="28.3992919921875" viewBox="0 0 30.39697265625 28.3992919921875" fill="none">
<path d="M29.9907 14.2843C30.2587 14.0344 30.2664 13.6314 30.0079 13.3729L30.0079 13.3728L27.2718 10.8223L16.3698 0.648521C16.0618 0.361325 15.644 0.199985 15.2083 0.199985C14.7726 0.199985 14.3548 0.361325 14.0468 0.648521L3.12836 10.8157L0.385268 13.3729C0.126814 13.6314 0.134439 14.0343 0.402519 14.2842C0.670599 14.5341 1.10283 14.5413 1.3802 14.3003L2.92187 12.8632L2.92187 26.6681C2.92187 27.5137 3.65729 28.1993 4.56445 28.1993L10.9728 28.1993C11.88 28.1993 12.6154 27.5137 12.6154 26.6681L12.6154 17.9184C12.6154 17.7975 12.7205 17.6996 12.85 17.6996L17.5431 17.6996C17.6727 17.6996 17.7778 17.7975 17.7778 17.9184L17.7778 26.6681C17.7778 27.5137 18.5132 28.1993 19.4204 28.1993L25.8358 28.1993C26.2714 28.1993 26.6892 28.038 26.9973 27.7508C27.3053 27.4637 27.4783 27.0742 27.4783 26.6681L27.4783 12.8697L29.013 14.3003C29.2904 14.5413 29.7226 14.5342 29.9907 14.2843ZM25.8358 26.8867C25.9654 26.8867 26.0705 26.7888 26.0705 26.668L26.0681 11.5572L15.3609 1.57589C15.2693 1.49108 15.1215 1.49108 15.03 1.57589L4.32983 11.5528L4.32983 26.668C4.32983 26.7888 4.4349 26.8867 4.56449 26.8867L10.9729 26.8867C11.1025 26.8867 11.2075 26.7888 11.2075 26.668L11.2075 17.9183C11.2075 17.0726 11.9429 16.3871 12.8501 16.3871L17.5431 16.3871C18.4503 16.3871 19.1857 17.0726 19.1857 17.9183L19.1857 26.668C19.1857 26.7888 19.2908 26.8867 19.4204 26.8867L25.8358 26.8867Z" stroke="rgba(255, 255, 255, 1)" stroke-width="0.4000000059604645"    fill-rule="evenodd"  fill="#FFFFFF" >
</path>
</svg>
