<svg xmlns="http://www.w3.org/2000/svg" xmlns:xlink="http://www.w3.org/1999/xlink" width="24.89892578125" height="33.090087890625" viewBox="0 0 24.89892578125 33.090087890625" fill="none">
<path d="M12.3645 6.1543C8.73699 6.14914 5.78199 9.08797 5.77682 12.7059C5.77425 14.4836 5.79576 18.8728 5.79576 18.9171C5.79585 19.1227 5.96183 19.2898 6.16748 19.2912L6.16937 19.2912C6.21532 19.2912 10.7419 19.2729 12.3466 19.2752C15.9743 19.2803 18.9297 16.3413 18.9347 12.7238C18.9395 9.10639 15.9921 6.15913 12.3645 6.1543ZM12.3475 18.5237C11.0128 18.5219 7.66021 18.534 6.53851 18.5381C6.53334 17.4322 6.51906 14.1757 6.52095 12.7066C6.52543 9.50392 9.14657 6.90136 12.3637 6.90583C15.5808 6.91048 18.1945 9.51993 18.19 12.7229C18.1857 15.9259 15.565 18.5281 12.3475 18.5237Z" fill-rule="evenodd"  fill="#DB0011" >
</path>
<path   fill-rule="evenodd"  fill="#DB0011"  d="M12.3683 3.19654C7.14876 3.18914 2.89635 7.45893 2.88878 12.714C2.88568 14.7494 2.90392 19.0974 2.91218 20.99C2.91115 21.0004 2.90908 21.0102 2.90908 21.0203L2.89704 29.7511C2.89704 29.9618 3.06397 30.132 3.27014 30.1323C3.4763 30.1323 3.64358 29.9623 3.64358 29.7521L3.6539 22.2802C5.07487 22.2747 10.3087 22.2554 12.3429 22.2582C17.5631 22.2653 21.816 17.996 21.8231 12.7403C21.83 7.48509 17.5889 3.2036 12.3687 3.19654M12.3437 21.497C10.3147 21.4941 5.10138 21.5134 3.6613 21.5189C3.65442 20.0845 3.63204 14.973 3.63549 12.7152C3.64168 7.87987 7.55938 3.95082 12.3678 3.95753C17.1764 3.96442 21.0829 7.90396 21.0765 12.7394C21.07 17.5749 17.1525 21.5034 12.3437 21.4972">
</path>
<path d="M12.4664 1.11461e-05C5.60181 -0.00910974 0.0100046 5.57134 0.000367375 12.4404C-0.00427913 15.9103 0.0366789 24.4804 0.0370231 24.564L0.0303115 29.718C0.029279 30.5912 0.608371 33.0864 3.19751 33.09C5.96872 33.0938 6.59565 30.6978 6.59668 29.8579C6.59754 29.2468 6.64177 26.0043 6.65691 24.9246C8.58224 24.9176 10.5076 24.9144 12.4329 24.9149C19.2973 24.9246 24.8895 19.3438 24.8989 12.4748C24.9082 5.60576 19.3312 0.00964832 12.4664 1.11461e-05ZM12.4337 24.152C11.2692 24.1501 9.22936 24.1538 6.36969 24.1624C6.33424 24.1624 6.29931 24.1674 6.2654 24.1777L6.17901 24.2031C6.01966 24.2512 5.91006 24.3973 5.90848 24.5637C5.9059 24.7494 5.84481 29.1198 5.84343 29.8567C5.84343 29.8817 5.72675 32.3302 3.19837 32.3268C0.883204 32.3233 0.782874 29.7447 0.782874 29.7185L0.790102 24.5626C0.789586 24.4763 0.748628 15.9084 0.753446 12.4409C0.761879 5.99263 6.01587 0.754123 12.465 0.762728C18.9147 0.772193 24.1543 6.02533 24.1457 12.4735C24.1369 18.9216 18.8827 24.161 12.4337 24.152Z" fill-rule="evenodd"  fill="#DB0011" >
</path>
</svg>
