<svg xmlns="http://www.w3.org/2000/svg" xmlns:xlink="http://www.w3.org/1999/xlink" width="24.41064453125" height="29.83502197265625" viewBox="0 0 24.41064453125 29.83502197265625" fill="none">
<path d="M2.71228 11.5272C2.71228 6.90777 6.79415 2.71228 12.2052 2.71228C17.6164 2.71228 21.6982 6.90777 21.6982 11.5272C21.6982 14.436 19.9185 17.6848 17.5764 20.6962C15.7254 23.076 13.6662 25.1332 12.2052 26.5727C10.7443 25.1332 8.68507 23.076 6.83405 20.6962C4.49192 17.6848 2.71228 14.436 2.71228 11.5272ZM12.2052 0C5.41108 0 0 5.29747 0 11.5272C0 15.3991 2.28877 19.2699 4.69312 22.3612C6.77373 25.0363 9.11243 27.3362 10.5742 28.7736C10.8262 29.0215 11.0523 29.2438 11.2463 29.4378C11.5006 29.6921 11.8456 29.835 12.2052 29.835C12.5649 29.835 12.9099 29.6921 13.1642 29.4378C13.3582 29.2438 13.5843 29.0215 13.8363 28.7737C15.298 27.3361 17.6367 25.0363 19.7174 22.3612C22.1217 19.2699 24.4105 15.3991 24.4105 11.5272C24.4105 5.29747 18.9994 0 12.2052 0ZM12.2052 15.5956C14.0777 15.5956 15.5956 14.0777 15.5956 12.2052C15.5956 10.3328 14.0777 8.8149 12.2052 8.8149C10.3328 8.8149 8.8149 10.3328 8.8149 12.2052C8.8149 14.0777 10.3328 15.5956 12.2052 15.5956Z" fill-rule="evenodd"  fill="#55BDB9" >
</path>
</svg>
