<svg xmlns="http://www.w3.org/2000/svg" xmlns:xlink="http://www.w3.org/1999/xlink" width="31.73486328125" height="31.73480224609375" viewBox="0 0 31.73486328125 31.73480224609375" fill="none">
<path d="M15.8674 2.21406C8.32688 2.21406 2.21406 8.32688 2.21406 15.8674C2.21406 23.4079 8.32688 29.5208 15.8674 29.5208C23.4079 29.5208 29.5208 23.4079 29.5208 15.8674C29.5208 8.32688 23.4079 2.21406 15.8674 2.21406ZM0 15.8674C0 7.10408 7.10408 0 15.8674 0C24.6308 0 31.7348 7.10408 31.7348 15.8674C31.7348 24.6308 24.6308 31.7348 15.8674 31.7348C7.10408 31.7348 0 24.6308 0 15.8674ZM15.8674 5.90415C16.4788 5.90415 16.9744 6.39979 16.9744 7.01118L16.9744 7.47869C19.381 7.9096 21.4025 9.71766 21.4025 12.1773C21.4025 12.7887 20.9069 13.2843 20.2955 13.2843C19.6841 13.2843 19.1885 12.7887 19.1885 12.1773C19.1885 10.9311 17.8992 9.59425 15.8674 9.59425C13.8356 9.59425 12.5463 10.9311 12.5463 12.1773C12.5463 13.4235 13.8356 14.7604 15.8674 14.7604C18.7268 14.7604 21.4025 16.7276 21.4025 19.5575C21.4025 22.0172 19.381 23.8252 16.9744 24.2562L16.9744 24.7236C16.9744 25.335 16.4788 25.8307 15.8674 25.8307C15.256 25.8307 14.7604 25.335 14.7604 24.7236L14.7604 24.2562C12.3538 23.8252 10.3323 22.0172 10.3323 19.5575C10.3323 18.9461 10.8279 18.4505 11.4393 18.4505C12.0507 18.4505 12.5463 18.9461 12.5463 19.5575C12.5463 20.8037 13.8356 22.1406 15.8674 22.1406C17.8992 22.1406 19.1885 20.8037 19.1885 19.5575C19.1885 18.3113 17.8992 16.9744 15.8674 16.9744C13.008 16.9744 10.3323 15.0072 10.3323 12.1773C10.3323 9.71766 12.3538 7.9096 14.7604 7.47869L14.7604 7.01118C14.7604 6.39979 15.256 5.90415 15.8674 5.90415Z" fill-rule="evenodd"  fill="#55BDB9" >
</path>
</svg>
