<svg xmlns="http://www.w3.org/2000/svg" xmlns:xlink="http://www.w3.org/1999/xlink" width="29.13232421875" height="32.4862060546875" viewBox="0 0 29.13232421875 32.4862060546875" fill="none">
<path    stroke="rgba(85, 189, 185, 1)" stroke-width="2.299999952316284"  stroke-linecap="round"  d="M27.9821 12.8891L27.9821 7.85803C27.9821 6.00566 26.4805 4.50401 24.6281 4.50401L4.50392 4.50401C2.65155 4.50401 1.1499 6.00566 1.1499 7.85803L1.1499 12.8891M27.9821 12.8891L27.9821 27.9822C27.9821 29.8346 26.4805 31.3362 24.6281 31.3362L4.50392 31.3362C2.65155 31.3362 1.1499 29.8346 1.1499 27.9822L1.1499 12.8891M27.9821 12.8891L18.2927 12.8891L1.1499 12.8891M7.85794 1.14999L7.85794 7.85803M21.274 1.14999L21.274 7.85803">
</path>
<rect  x="4.70849609375" y="16.59710693359375" width="5" height="5" rx="0.5"    fill="#55BDB9" >
</rect>
<rect  x="12.05029296875" y="16.24310302734375" width="5.031033039093018" height="5.031033039093018" rx="0.5"    fill="#55BDB9" >
</rect>
<rect  x="19.70849609375" y="16.59710693359375" width="5" height="5" rx="0.5"    fill="#55BDB9" >
</rect>
</svg>
