<svg xmlns="http://www.w3.org/2000/svg" xmlns:xlink="http://www.w3.org/1999/xlink" width="27.76416015625" height="27.76416015625" viewBox="0 0 27.76416015625 27.76416015625" fill="none">
<path d="M27.7641 13.8821C27.7641 21.5489 21.5489 27.7641 13.8821 27.7641C6.21522 27.7641 0 21.5489 0 13.8821C0 6.21522 6.21522 0 13.8821 0C21.5489 0 27.7641 6.21522 27.7641 13.8821ZM2.53263 13.8821C2.53263 20.1502 7.61395 25.2315 13.8821 25.2315C20.1502 25.2315 25.2315 20.1502 25.2315 13.8821C25.2315 7.61395 20.1502 2.53263 13.8821 2.53263C7.61395 2.53263 2.53263 7.61395 2.53263 13.8821Z"   fill="#55BDB9" >
</path>
<path d="M13.8821 5.04803C13.1851 5.04803 12.6201 5.61305 12.6201 6.31004L12.6201 14.4711C12.6201 14.4711 12.6201 14.8001 12.78 15.0475C12.887 15.2574 13.0539 15.4397 13.2731 15.5663L19.1033 18.9325C19.7069 19.2809 20.4788 19.0741 20.8272 18.4704C21.1756 17.8668 20.9689 17.095 20.3653 16.7465L15.1441 13.7322L15.1441 6.31004C15.1441 5.61306 14.5791 5.04803 13.8821 5.04803Z"   fill="#55BDB9" >
</path>
</svg>
