<svg xmlns="http://www.w3.org/2000/svg" xmlns:xlink="http://www.w3.org/1999/xlink" width="30.226318359375" height="30.20660400390625" viewBox="0 0 30.226318359375 30.20660400390625" fill="none">
<path d="M7.73858 24.3754C9.27711 25.0413 10.9266 25.3743 12.6871 25.3743C14.2257 25.3743 15.6848 25.1145 17.0645 24.595C18.4442 24.0754 19.6947 23.3506 20.8161 22.4206L28.3151 29.8966C28.537 30.1033 28.7968 30.2066 29.0944 30.2066C29.3919 30.2066 29.6517 30.1033 29.8736 29.8966C30.0956 29.6746 30.2128 29.4172 30.2253 29.1245C30.2377 28.8317 30.1329 28.5743 29.911 28.3524L22.3976 20.8391C23.3277 19.7177 24.0563 18.4672 24.5835 17.0875C25.1107 15.7077 25.3743 14.241 25.3743 12.6871C25.3743 10.9419 25.0413 9.30008 24.3754 7.76157C23.7094 6.22304 22.8005 4.87777 21.6485 3.72578C20.4965 2.57381 19.1512 1.66486 17.6127 0.99893C16.0742 0.332977 14.4324 0 12.6871 0C10.9266 0 9.27711 0.332977 7.73858 0.99893C6.20005 1.66486 4.85862 2.57381 3.71428 3.72578C2.56997 4.87777 1.66486 6.22304 0.998929 7.76157C0.332976 9.30008 0 10.9419 0 12.6871C0 14.4477 0.332976 16.0972 0.998929 17.6357C1.66486 19.1742 2.56997 20.5157 3.71428 21.66C4.85862 22.8043 6.20005 23.7094 7.73858 24.3754ZM20.0755 20.0755C18.0356 22.1064 15.5728 23.1218 12.6871 23.1218C9.78605 23.1218 7.31942 22.1064 5.28716 20.0755C3.25492 18.0445 2.2388 15.5795 2.2388 12.6804Q2.2388 8.35462 5.28716 5.29676C7.31942 3.25819 9.78605 2.2389 12.6871 2.2389C15.5728 2.2389 18.0356 3.25819 20.0755 5.29676C22.1154 7.33533 23.1353 9.79654 23.1353 12.6804C23.1353 15.5795 22.1154 18.0445 20.0755 20.0755Z" fill-rule="evenodd"  fill="#FFFFFF" >
</path>
</svg>
