<svg xmlns="http://www.w3.org/2000/svg" xmlns:xlink="http://www.w3.org/1999/xlink" width="42" height="42" viewBox="0 0 42 42" fill="none">
<g filter="url(#filter_07e51b29-36df-430a-924c-ff9b141bbcac)">
<circle cx="21" cy="21" r="21"   fill="#FFFFFF" >
</circle>
</g>
<path d="M10.3984 28.8565C10.3984 30.0012 10.8006 30.9757 11.605 31.7801C12.4094 32.5845 13.3839 32.9867 14.5286 32.9867L28.2648 32.9867C29.394 32.9867 30.3608 32.5845 31.1652 31.7801C31.9696 30.9757 32.3718 30.0012 32.3718 28.8565L32.3718 22.9165L29.6338 25.2136L29.6338 28.8565C29.6338 29.2432 29.5023 29.5681 29.2393 29.831C28.9764 30.094 28.6515 30.2332 28.2648 30.2487L14.5286 30.2487C14.1419 30.2487 13.817 30.1095 13.5541 29.831C13.2911 29.5526 13.1596 29.2278 13.1596 28.8565L13.1596 15.1203C13.1596 14.749 13.2911 14.4242 13.5541 14.1458C13.817 13.8673 14.1419 13.7358 14.5286 13.7513L21.3967 13.7513L21.3967 11.0133L14.5286 11.0133C13.3839 11.0133 12.4094 11.4155 11.605 12.2199C10.8006 13.0243 10.3984 13.9911 10.3984 15.1203L10.3984 28.8565L10.3984 28.8565ZM14.5286 24.7496C14.5286 26.0799 14.7916 27.356 15.3175 28.5781C15.565 27.1549 16.1064 25.8633 16.9417 24.7031C17.777 23.543 18.8134 22.6071 20.0509 21.8956C21.2884 21.184 22.6497 20.7819 24.1347 20.689L24.1347 24.7496L32.3718 17.8815L24.1347 11.0133L24.1347 15.1203C22.8353 15.1203 21.59 15.3755 20.3989 15.886C19.2079 16.3965 18.187 17.0848 17.3362 17.9511C16.4854 18.8173 15.797 19.8383 15.2711 21.0139C14.7452 22.1895 14.4977 23.4347 14.5286 24.7496L14.5286 24.7496Z"   fill="#EB6C89" >
</path>
<defs>
<filter id="filter_07e51b29-36df-430a-924c-ff9b141bbcac" x="0" y="0" width="42" height="42" filterUnits="userSpaceOnUse" color-interpolation-filters="sRGB">
<feFlood flood-opacity="0" result="feFloodId_07e51b29-36df-430a-924c-ff9b141bbcac"/>
<feGaussianBlur in="feFloodId_07e51b29-36df-430a-924c-ff9b141bbcac" stdDeviation_bg="10" type="BackgroundImage" />
<feComposite in2="SourceAlpha" operator="in" result="background_Blur_07e51b29-36df-430a-924c-ff9b141bbcac"/>
<feBlend mode="normal" in="SourceGraphic" in2="background_Blur_07e51b29-36df-430a-924c-ff9b141bbcac" result="shape_07e51b29-36df-430a-924c-ff9b141bbcac"/>
</filter>
</defs>
</svg>
