<svg xmlns="http://www.w3.org/2000/svg" xmlns:xlink="http://www.w3.org/1999/xlink" width="335.00048828125" height="265.67236328125" viewBox="0 0 335.00048828125 265.67236328125" fill="none">
<path d="M132.053 0.63603C132.053 0.63603 138.646 3.01146 137.84 8.53966L135.038 10.4861C135.038 10.4861 134.676 5.14213 130.705 4.12861L132.053 0.63603ZM41.1136 55.5263C41.1136 52.9465 40.9121 50.8532 40.6615 50.8532C40.414 50.8532 40.2124 52.9465 40.2124 55.5263C40.2124 58.109 40.414 60.1994 40.6615 60.1994C40.9121 60.1994 41.1136 58.109 41.1136 55.5263ZM191.04 56.3384C191.04 56.3384 183.612 70.1072 171.675 66.4908L168.306 59.6583C168.306 59.6583 180.226 60.6344 183.779 52.2009L191.04 56.3384ZM46.6127 58.0602C47.5514 57.113 48.1705 56.2031 47.9948 56.0303C47.8163 55.8546 46.9122 56.4795 45.9736 57.4268C45.0349 58.374 44.4188 59.2839 44.5944 59.4596C44.77 59.6323 45.6741 59.0075 46.6127 58.0602ZM35.5305 58.6475C36.426 59.3904 37.2782 59.8396 37.4366 59.6495C37.5949 59.4566 36.999 58.6994 36.1064 57.9565C35.2138 57.2136 34.3586 56.7645 34.2003 56.9545C34.0419 57.1474 34.6379 57.9047 35.5305 58.6475ZM263.489 59.8483C263.489 59.8483 261.707 66.6232 256.127 66.3036L253.941 63.6863C253.941 63.6863 259.234 62.8542 259.893 58.8088L263.489 59.8483ZM50.4766 62.6323C47.9342 62.6323 45.8726 62.8339 45.8726 63.0815C45.8726 63.3291 47.9342 63.5306 50.4766 63.5306C53.0219 63.5306 55.0834 63.3291 55.0834 63.0815C55.0834 62.8339 53.0219 62.6323 50.4766 62.6323ZM31.1655 63.8331C33.7079 63.8331 35.7723 63.6315 35.7723 63.3811C35.7723 63.1334 33.7079 62.9319 31.1655 62.9319C28.6231 62.9319 26.5615 63.1334 26.5615 63.3811C26.5615 63.6315 28.6231 63.8331 31.1655 63.8331ZM37.022 65.909C37.2063 66.0789 36.665 66.9715 35.8127 67.9072C34.9605 68.843 34.1197 69.465 33.9354 69.2979C33.754 69.1309 34.2953 68.2355 35.1476 67.2997C35.9998 66.3668 36.8406 65.742 37.022 65.909ZM40.5318 70.9363C40.5318 73.519 40.7333 75.6094 40.9809 75.6094C41.2286 75.6094 41.4301 73.519 41.4301 70.9363C41.4301 68.3565 41.2286 66.2632 40.9809 66.2632C40.7333 66.2632 40.5318 68.3565 40.5318 70.9363ZM46.4432 68.5638C47.3473 69.6464 48.2341 70.395 48.4241 70.2366C48.6141 70.0782 48.0383 69.0705 47.1342 67.9879C46.2272 66.9053 45.3404 66.1567 45.1504 66.3151C44.9603 66.4734 45.5391 67.4812 46.4432 68.5638ZM291.942 81.1924C291.942 78.6126 291.74 76.5193 291.493 76.5193C291.242 76.5193 291.043 78.6126 291.043 81.1924C291.043 83.7722 291.242 85.8655 291.493 85.8655C291.74 85.8655 291.942 83.7722 291.942 81.1924ZM99.2061 88.8773C99.2061 88.8773 99.8712 81.9008 105.425 81.3105L108.008 83.542C108.008 83.542 102.92 85.2177 102.926 89.3178L99.2061 88.8773ZM297.444 83.7262C298.383 82.7789 298.999 81.869 298.823 81.6963C298.648 81.5206 297.744 82.1455 296.805 83.0928C295.866 84.04 295.247 84.9499 295.423 85.1255C295.601 85.2983 296.505 84.6734 297.444 83.7262ZM286.362 84.3134C287.255 85.0563 288.107 85.5055 288.268 85.3155C288.427 85.1225 287.83 84.3652 286.935 83.6224C286.042 82.8767 285.19 82.4304 285.029 82.6204C284.87 82.8104 285.466 83.5706 286.362 84.3134ZM301.306 88.2983C298.763 88.2983 296.702 88.4999 296.702 88.7475C296.702 88.9951 298.763 89.1967 301.306 89.1967C303.851 89.1967 305.913 88.9951 305.913 88.7475C305.913 88.4999 303.851 88.2983 301.306 88.2983ZM281.997 89.4991C284.539 89.4991 286.601 89.2976 286.601 89.047C286.601 88.7994 284.539 88.5979 281.997 88.5979C279.452 88.5979 277.39 88.7994 277.39 89.047C277.39 89.2976 279.452 89.4991 281.997 89.4991ZM286.641 93.5734C287.494 92.6376 288.038 91.7451 287.854 91.5751C287.669 91.4081 286.828 92.033 285.976 92.9659C285.124 93.9016 284.583 94.7971 284.767 94.9641C284.951 95.1311 285.789 94.5091 286.641 93.5734ZM291.36 96.6023C291.36 99.1821 291.562 101.275 291.81 101.275C292.057 101.275 292.259 99.1821 292.259 96.6023C292.259 94.0225 292.057 91.9292 291.81 91.9292C291.562 91.9292 291.36 94.0225 291.36 96.6023ZM297.272 94.2298C298.176 95.3124 299.063 96.061 299.256 95.9026C299.446 95.7443 298.867 94.7365 297.963 93.6539C297.059 92.5714 296.172 91.8227 295.979 91.9811C295.789 92.1394 296.368 93.1472 297.272 94.2298ZM11.0456 108.482C11.0456 108.482 -0.437012 106.38 0.562103 97.7136L5.23517 94.0713C5.23517 94.0713 6.22852 102.185 13.1187 102.81L11.0456 108.482ZM162.676 265.172C204.308 265.172 238.057 231.423 238.057 189.79C238.057 148.158 204.308 114.409 162.676 114.409C121.043 114.409 87.294 148.158 87.294 189.79C87.294 231.423 121.043 265.172 162.676 265.172ZM328.647 124.413C328.647 124.413 335.238 126.786 334.432 132.314L331.63 134.263C331.63 134.263 331.27 128.917 327.297 127.906L328.647 124.413ZM257.227 152.27C257.227 152.27 267.517 151.502 269.754 159.422L267.157 163.724C267.157 163.724 263.457 156.751 257.509 157.778L257.227 152.27ZM38.8877 168.875C38.8877 168.875 49.1783 168.106 51.4126 176.027L48.8155 180.329C48.8155 180.329 45.1184 173.358 39.1699 174.383L38.8877 168.875Z" stroke="rgba(88, 197, 230, 1)" stroke-width="1"    fill-rule="evenodd"  fill="#58C5E6" >
</path>
<path d="M199.8 157.986C200.764 158.769 186.682 177.709 168.349 200.282C164.442 205.024 160.693 209.571 157.247 213.751L155.729 215.594L154.1 213.913C139.787 199.165 130.012 188.209 130.706 187.518C131.397 186.824 142.35 196.6 157.1 210.912L153.956 211.077C157.339 206.844 161.019 202.246 164.857 197.446C183.189 174.873 198.835 157.205 199.8 157.986Z" stroke="rgba(255, 255, 255, 1)" stroke-width="1"      fill="#FFFFFF" >
</path>
</svg>
