<svg xmlns="http://www.w3.org/2000/svg" xmlns:xlink="http://www.w3.org/1999/xlink" width="366.000244140625" height="1" viewBox="0 0 366.000244140625 1" fill="none">
<path   fill="rgba(112, 112, 112, 1)"  d="M0 0L2.47297 0L2.47297 1L0 1L0 0ZM7.41892 0L12.3649 0L12.3649 1L7.41892 1L7.41892 0ZM17.3108 0L22.2568 0L22.2568 1L17.3108 1L17.3108 0ZM27.2027 0L32.1486 0L32.1486 1L27.2027 1L27.2027 0ZM37.0946 0L42.0405 0L42.0405 1L37.0946 1L37.0946 0ZM46.9865 0L51.9324 0L51.9324 1L46.9865 1L46.9865 0ZM56.8784 0L61.8243 0L61.8243 1L56.8784 1L56.8784 0ZM66.7703 0L71.7162 0L71.7162 1L66.7703 1L66.7703 0ZM76.6622 0L81.6081 0L81.6081 1L76.6622 1L76.6622 0ZM86.554 0L91.5 0L91.5 1L86.554 1L86.554 0ZM96.4459 0L101.392 0L101.392 1L96.4459 1L96.4459 0ZM106.338 0L111.284 0L111.284 1L106.338 1L106.338 0ZM116.23 0L121.176 0L121.176 1L116.23 1L116.23 0ZM126.122 0L131.068 0L131.068 1L126.122 1L126.122 0ZM136.014 0L140.959 0L140.959 1L136.014 1L136.014 0ZM145.905 0L150.851 0L150.851 1L145.905 1L145.905 0ZM155.797 0L160.743 0L160.743 1L155.797 1L155.797 0ZM165.689 0L170.635 0L170.635 1L165.689 1L165.689 0ZM175.581 0L180.527 0L180.527 1L175.581 1L175.581 0ZM185.473 0L190.419 0L190.419 1L185.473 1L185.473 0ZM195.365 0L200.311 0L200.311 1L195.365 1L195.365 0ZM205.257 0L210.203 0L210.203 1L205.257 1L205.257 0ZM215.149 0L220.095 0L220.095 1L215.149 1L215.149 0ZM225.041 0L229.987 0L229.987 1L225.041 1L225.041 0ZM234.933 0L239.879 0L239.879 1L234.933 1L234.933 0ZM244.824 0L249.77 0L249.77 1L244.824 1L244.824 0ZM254.716 0L259.662 0L259.662 1L254.716 1L254.716 0ZM264.608 0L269.554 0L269.554 1L264.608 1L264.608 0ZM274.5 0L279.446 0L279.446 1L274.5 1L274.5 0ZM284.392 0L289.338 0L289.338 1L284.392 1L284.392 0ZM294.284 0L299.23 0L299.23 1L294.284 1L294.284 0ZM304.176 0L309.122 0L309.122 1L304.176 1L304.176 0ZM314.068 0L319.014 0L319.014 1L314.068 1L314.068 0ZM323.96 0L328.906 0L328.906 1L323.96 1L323.96 0ZM333.852 0L338.798 0L338.798 1L333.852 1L333.852 0ZM343.744 0L348.69 0L348.69 1L343.744 1L343.744 0ZM353.635 0L358.581 0L358.581 1L353.635 1L353.635 0ZM363.527 0L366 0L366 1L363.527 1L363.527 0Z">
</path>
</svg>
