<svg xmlns="http://www.w3.org/2000/svg" xmlns:xlink="http://www.w3.org/1999/xlink" width="45" height="45" viewBox="0 0 45 45" fill="none">
<circle cx="22.5" cy="22.5" r="22.5"   fill="#EB6685" >
</circle>
<path d="M18.965 9.30712C13.142 10.8674 9.2519 15.7456 9.03848 21.4834L10.421 21.8071C11.6346 21.721 19.6474 20.9597 23.96 15.5042C24.3691 14.9871 24.9594 14.6618 25.6168 14.5872C26.2746 14.5138 26.9167 14.703 27.4284 15.116C28.2993 15.8237 31.3841 15.8558 33.1946 15.6561L34.0635 15.6033C31.1456 10.2546 25.0638 7.67294 18.965 9.30712Z"   fill="#FFFFFF" >
</path>
<path d="M36.6143 17.9362L33.4074 18.1296C32.5479 18.2275 27.8517 18.658 25.8641 17.0451C20.5369 23.8381 10.7718 24.2822 10.3622 24.2981C10.2502 24.3024 10.1392 24.2911 10.0322 24.2658L8.25749 23.8504C7.95701 24.6482 7.88823 25.5382 8.10742 26.3562C8.47024 27.7103 9.5378 28.7393 10.8689 29.082C14.0306 34.4578 20.3092 37.227 26.035 35.6928C31.7608 34.1586 35.8137 28.621 35.8638 22.3845C36.8452 21.4223 37.2552 19.9974 36.8924 18.6433C36.8268 18.3986 36.7281 18.1641 36.6143 17.9362ZM26.0981 21.5356C26.7601 21.3582 27.4413 21.7516 27.6187 22.4136C27.7961 23.0757 27.4029 23.7569 26.7408 23.9343C26.0788 24.1117 25.3974 23.7184 25.2201 23.0564C25.0427 22.3943 25.436 21.713 26.0981 21.5356ZM19.5446 25.8626C18.8825 26.04 18.2012 25.6466 18.0238 24.9846C17.8464 24.3225 18.2398 23.6413 18.9018 23.4639C19.5639 23.2865 20.2451 23.6798 20.4225 24.3419C20.5999 25.0039 20.2066 25.6852 19.5446 25.8626ZM28.8811 27.9308C28.2891 29.6795 26.9999 30.8837 25.479 31.2912C24.6407 31.5158 23.731 31.4986 22.8305 31.1936C22.1816 30.9741 21.8321 30.2695 22.0525 29.6191C22.272 28.9702 22.9752 28.6199 23.627 28.8412C24.9929 29.3043 26.1232 28.3317 26.5287 27.1343C26.7467 26.4845 27.4513 26.135 28.1032 26.3563C28.7532 26.5754 29.1016 27.2803 28.8811 27.9308Z"   fill="#FFFFFF" >
</path>
</svg>
