<svg xmlns="http://www.w3.org/2000/svg" xmlns:xlink="http://www.w3.org/1999/xlink" width="56" height="56" viewBox="0 0 56 56" fill="none">
<path d="M28 8.66663C15.1667 8.66663 4.66675 19.1666 4.66675 31.9999C4.66675 44.8333 15.1667 55.3333 28 55.3333C40.8334 55.3333 51.3334 44.8333 51.3334 31.9999C51.3334 19.1666 40.8334 8.66663 28 8.66663ZM28 50.6666C17.5 50.6666 9.33342 42.4999 9.33342 31.9999C9.33342 21.4999 17.5 13.3333 28 13.3333C38.5 13.3333 46.6667 21.4999 46.6667 31.9999C46.6667 42.4999 38.5 50.6666 28 50.6666Z"   fill="#FFFFFF" >
</path>
<path d="M22.8667 43.2001L14.2334 34.8L17.5001 31.3L22.8667 36.6666L36.1667 22.4333L39.6667 25.7L22.8667 43.2001Z"   fill="#FFFFFF" >
</path>
</svg>
