<svg xmlns="http://www.w3.org/2000/svg" xmlns:xlink="http://www.w3.org/1999/xlink" width="16" height="16" viewBox="0 0 16 16" fill="none">
<g filter="url(#filter_5830f1f8-9c0e-45ab-b428-e311d31c63b5)">
</g>
<path d="M8.00141 16C6.89494 16 5.85491 15.79 4.88132 15.3701C3.90772 14.9502 3.06082 14.3803 2.34064 13.6604C1.62044 12.9405 1.05028 12.094 0.63017 11.1209C0.210057 10.1477 0 9.10788 0 8.00141C0 6.89494 0.209966 5.85491 0.629896 4.88132C1.04983 3.90772 1.61972 3.06082 2.33959 2.34064C3.05946 1.62044 3.90598 1.05028 4.87915 0.630171C5.8523 0.210058 6.89212 0 7.99859 0C9.10506 0 10.1451 0.209966 11.1187 0.629897C12.0923 1.04983 12.9392 1.61972 13.6594 2.33959C14.3796 3.05946 14.9497 3.90598 15.3698 4.87915C15.7899 5.8523 16 6.89212 16 7.99859C16 9.10506 15.79 10.1451 15.3701 11.1187Q14.7402 12.5791 13.6604 13.6594C12.9405 14.3796 12.094 14.9497 11.1209 15.3698C10.1477 15.7899 9.10788 16 8.00141 16ZM12.7684 12.7684C11.4561 14.0807 9.86663 14.7368 7.99996 14.7368C6.13329 14.7368 4.54381 14.0807 3.23153 12.7684C1.91924 11.4561 1.2631 9.86663 1.2631 7.99996C1.2631 6.13329 1.91924 4.54381 3.23153 3.23153C4.54381 1.91924 6.13329 1.2631 7.99996 1.2631C9.86663 1.2631 11.4561 1.91924 12.7684 3.23153C14.0807 4.54381 14.7368 6.13329 14.7368 7.99996C14.7368 9.86663 14.0807 11.4561 12.7684 12.7684ZM8.63152 7.74416L8.63152 4.42106C8.63152 4.24213 8.57097 4.09213 8.44988 3.97108C8.32877 3.85003 8.1787 3.7895 7.99969 3.7895C7.82065 3.7895 7.67068 3.85003 7.54977 3.97108Q7.3684 4.15266 7.3684 4.42106L7.3684 7.9385C7.3684 8.03763 7.38675 8.13367 7.42345 8.22661C7.46015 8.31955 7.51792 8.40543 7.59674 8.48425L10.481 11.3685C10.5976 11.4851 10.7441 11.5447 10.9206 11.5474C11.0971 11.5501 11.2464 11.4905 11.3684 11.3685C11.4904 11.2465 11.5514 11.0986 11.5514 10.9248C11.5514 10.7509 11.4904 10.603 11.3684 10.481L8.63152 7.74416Z" fill-rule="evenodd"  fill="#55BDB9" >
</path>
<defs>
<filter id="filter_5830f1f8-9c0e-45ab-b428-e311d31c63b5" x="0" y="0" width="16" height="16" filterUnits="userSpaceOnUse" color-interpolation-filters="sRGB">
<feFlood flood-opacity="0" result="feFloodId_5830f1f8-9c0e-45ab-b428-e311d31c63b5"/>
<feGaussianBlur in="feFloodId_5830f1f8-9c0e-45ab-b428-e311d31c63b5" stdDeviation_bg="10" type="BackgroundImage" />
<feComposite in2="SourceAlpha" operator="in" result="background_Blur_5830f1f8-9c0e-45ab-b428-e311d31c63b5"/>
<feBlend mode="normal" in="SourceGraphic" in2="background_Blur_5830f1f8-9c0e-45ab-b428-e311d31c63b5" result="shape_5830f1f8-9c0e-45ab-b428-e311d31c63b5"/>
</filter>
</defs>
</svg>
