<svg xmlns="http://www.w3.org/2000/svg" xmlns:xlink="http://www.w3.org/1999/xlink" width="34" height="34" viewBox="0 0 34 34" fill="none">
<circle  cx="17" cy="17" r="17"    fill="#FFFFFF" >
</circle>
<path fill-rule="evenodd"  fill="rgba(85, 189, 185, 1)"  d="M17 34C26.3888 34 34 26.3888 34 17C34 7.61116 26.3888 0 17 0C7.61116 0 0 7.61116 0 17C0 26.3888 7.61116 34 17 34ZM17 2C25.2843 2 32 8.71573 32 17C32 25.2843 25.2843 32 17 32C8.71573 32 2 25.2843 2 17C2 8.71573 8.71573 2 17 2Z">
</path>
<path    stroke="rgba(85, 189, 185, 1)" stroke-width="3" stroke-linejoin="round" stroke-linecap="round"  d="M7.03418 17.0002L26.966 17.0002">
</path>
</svg>
