<svg xmlns="http://www.w3.org/2000/svg" xmlns:xlink="http://www.w3.org/1999/xlink" width="88.811279296875" height="23.21630859375" viewBox="0 0 88.811279296875 23.21630859375" fill="none">
<path d="M73.227 11.6083C73.227 18.0197 68.0296 23.2162 61.6185 23.2162C55.2075 23.2162 50.0107 18.0194 50.0107 11.6083C50.0107 5.19763 55.2076 0.000488281 61.6185 0.000488281C68.0294 0.000488281 73.227 5.19789 73.227 11.6083Z"   fill="#D9222A" >
</path>
<path     fill="#EE9F2D"  d="M77.2027 0C74.2035 0 71.4703 1.13789 69.4102 3.00491C68.9905 3.38573 68.5988 3.79625 68.2381 4.23333L70.5834 4.23333C70.9045 4.62373 71.2001 5.03437 71.4684 5.46279L67.3533 5.46279C67.1058 5.85869 66.8824 6.26913 66.6845 6.69199L72.1368 6.69199C72.3239 7.09196 72.488 7.50228 72.6283 7.92094L66.1931 7.92094C66.0579 8.32407 65.9453 8.73446 65.8557 9.15013L72.9652 9.15013C73.1391 9.95783 73.2268 10.7818 73.2267 11.608C73.2267 12.8972 73.0162 14.1373 72.6282 15.2954L66.193 15.2954C66.3329 15.7143 66.4969 16.1247 66.6842 16.5246L72.1367 16.5246C71.9386 16.9476 71.7151 17.3581 71.4676 17.7542L67.3531 17.7542C67.6212 18.1823 67.9169 18.5926 68.2381 18.9826L70.5829 18.9826C70.2227 19.4205 69.8307 19.8315 69.4104 20.2121C71.4706 22.0788 74.2034 23.2162 77.2028 23.2162C83.6139 23.2162 88.8113 18.0194 88.8113 11.6083C88.8113 5.19791 83.6139 0.000518799 77.2028 0.000518799">
</path>
<path d="M87.2637 18.079C87.2637 17.8721 87.4313 17.7038 87.6385 17.7038C87.8457 17.7038 88.0134 17.8721 88.0134 18.079C88.0134 18.2858 87.8457 18.4541 87.6385 18.4541C87.4313 18.4541 87.2637 18.2858 87.2637 18.079ZM87.6385 18.364C87.7959 18.3639 87.9235 18.2363 87.9236 18.079C87.9236 17.9217 87.7961 17.7943 87.6389 17.7942C87.4815 17.794 87.354 17.9211 87.3538 18.0781C87.3536 18.2364 87.481 18.3639 87.6383 18.3641C87.6383 18.364 87.6385 18.364 87.6385 18.364ZM87.5879 18.2437L87.5111 18.2437L87.5111 17.9142L87.6501 17.9142C87.6792 17.9142 87.7088 17.9142 87.7345 17.9306C87.7612 17.9487 87.7763 17.9805 87.7763 18.0133C87.7763 18.0502 87.7544 18.0847 87.7191 18.0982L87.7798 18.2437L87.6947 18.2437L87.6444 18.1132L87.588 18.1132L87.5879 18.2437ZM87.5879 18.0569L87.6305 18.0569C87.6464 18.0569 87.6631 18.0582 87.6774 18.0504C87.69 18.0423 87.6966 18.0272 87.6966 18.0126C87.6962 17.9991 87.6893 17.9866 87.6779 17.9791C87.6645 17.9708 87.6433 17.9726 87.6289 17.9726L87.5879 17.9726L87.5879 18.0569ZM58.9079 12.8794C58.7756 12.864 58.7175 12.8599 58.6266 12.8599C57.9123 12.8599 57.5507 13.1048 57.5507 13.5886C57.5507 13.8867 57.7272 14.0765 58.0025 14.0765C58.5159 14.0765 58.8858 13.5877 58.9079 12.8794ZM59.8243 15.0131L58.7802 15.0131L58.8042 14.5167C58.4856 14.909 58.0608 15.0954 57.4833 15.0954C56.8002 15.0954 56.332 14.5619 56.332 13.7873C56.332 12.6217 57.1465 11.9416 58.5447 11.9416C58.6875 11.9416 58.8707 11.9545 59.0582 11.9785C59.0973 11.8206 59.1075 11.7529 59.1075 11.668C59.1075 11.3506 58.8879 11.2323 58.2992 11.2323C57.6827 11.2254 57.1743 11.3792 56.9654 11.4479C56.9786 11.3684 57.14 10.3706 57.14 10.3706C57.7681 10.1865 58.1822 10.1173 58.6484 10.1173C59.7304 10.1173 60.3036 10.6031 60.3025 11.5213C60.3047 11.7674 60.2639 12.071 60.2004 12.4701C60.0911 13.1642 59.8564 14.6507 59.8243 15.0131ZM55.8047 15.0131L54.5446 15.0131L55.2664 10.4866L53.6545 15.0131L52.7958 15.0131L52.6896 10.5125L51.9309 15.0131L50.7512 15.0131L51.7366 9.12477L53.5486 9.12477L53.6585 12.4207L54.7638 9.12477L56.7793 9.12477L55.8047 15.0131ZM78.7597 12.8794C78.628 12.864 78.5695 12.8599 78.4789 12.8599C77.7649 12.8599 77.4032 13.1048 77.4032 13.5886C77.4032 13.8867 77.5795 14.0765 77.8548 14.0765C78.3683 14.0765 78.7384 13.5877 78.7597 12.8794ZM79.677 15.0131L78.6328 15.0131L78.6565 14.5167C78.3379 14.909 77.9128 15.0954 77.3359 15.0954C76.6527 15.0954 76.1848 14.5619 76.1848 13.7873C76.1848 12.6217 76.9988 11.9416 78.3972 11.9416C78.54 11.9416 78.723 11.9545 78.9103 11.9785C78.9494 11.8206 78.9597 11.7529 78.9597 11.668C78.9597 11.3506 78.7403 11.2323 78.1516 11.2323C77.5351 11.2254 77.0272 11.3792 76.8176 11.4479C76.8308 11.3684 76.9927 10.3706 76.9927 10.3706C77.6208 10.1865 78.0347 10.1173 78.5003 10.1173C79.5829 10.1173 80.1561 10.6031 80.155 11.5213C80.157 11.7674 80.1164 12.071 80.0529 12.4701C79.944 13.1642 79.7088 14.6507 79.677 15.0131ZM65.4249 14.9404C65.08 15.049 64.8111 15.0954 64.5195 15.0954C63.8753 15.0954 63.5237 14.7252 63.5237 14.0435C63.5146 13.832 63.6164 13.2753 63.6965 12.7672C63.7692 12.3199 64.2428 9.49959 64.2428 9.49959L65.4955 9.49959L65.3492 10.2244L66.1057 10.2244L65.9349 11.3752L65.1755 11.3752C65.03 12.2859 64.8228 13.4203 64.8204 13.5707C64.8204 13.8174 64.9522 13.9252 65.2518 13.9252C65.3955 13.9252 65.5066 13.9106 65.5916 13.88L65.4249 14.9404ZM69.2656 14.9016C68.8353 15.0331 68.4201 15.0967 67.9801 15.0956C66.5778 15.0942 65.8469 14.3619 65.8469 12.9595C65.8469 11.3226 66.7768 10.1175 68.0391 10.1175C69.0719 10.1175 69.7315 10.7922 69.7315 11.8504C69.7315 12.2015 69.6862 12.5442 69.5771 13.0281L67.0826 13.0281C66.9982 13.7227 67.4428 14.0121 68.1714 14.0121C68.6199 14.0121 69.0242 13.9197 69.4739 13.7106L69.2656 14.9016ZM68.5615 12.0627C68.5684 11.9629 68.6944 11.208 67.9787 11.208C67.5796 11.208 67.2943 11.5122 67.1781 12.0627L68.5615 12.0627ZM60.5803 11.7382C60.5803 12.344 60.874 12.7617 61.5401 13.0753C62.0504 13.3152 62.1293 13.3864 62.1293 13.6036C62.1293 13.9022 61.9043 14.037 61.4056 14.037C61.0297 14.037 60.68 13.9783 60.2767 13.848C60.2767 13.848 60.1109 14.9035 60.1034 14.954C60.3899 15.0165 60.6453 15.0743 61.4147 15.0956C62.7445 15.0956 63.3586 14.5893 63.3586 13.4951C63.3586 12.8371 63.1015 12.4509 62.4702 12.1607C61.9418 11.9182 61.8813 11.8641 61.8813 11.6405C61.8813 11.3815 62.0906 11.2495 62.498 11.2495C62.7453 11.2495 63.0832 11.2759 63.4033 11.3214L63.5828 10.2107C63.2565 10.159 62.7618 10.1175 62.4737 10.1175C61.0639 10.1175 60.576 10.8539 60.5803 11.7382ZM75.3949 10.2434C75.7449 10.2434 76.0712 10.3353 76.5209 10.5616L76.7271 9.28358C76.5425 9.21111 75.8926 8.78564 75.3421 8.78564C74.4988 8.78564 73.7859 9.2041 73.2844 9.89469C72.553 9.65245 72.2524 10.142 71.8839 10.6298L71.5565 10.706C71.5812 10.5454 71.6036 10.3859 71.596 10.2245L70.4387 10.2245C70.2806 11.7065 70.0004 13.2075 69.781 14.6914L69.7239 15.0132L70.9846 15.0132C71.195 13.6459 71.3103 12.7705 71.3804 12.178L71.8552 11.9139C71.9261 11.6502 72.148 11.561 72.5935 11.5718C72.5336 11.8956 72.5036 12.2244 72.504 12.5537C72.504 14.1203 73.3492 15.0956 74.706 15.0956C75.0554 15.0956 75.3553 15.0496 75.8196 14.9238L76.0414 13.5813C75.6238 13.787 75.281 13.8838 74.9706 13.8838C74.238 13.8838 73.7947 13.343 73.7947 12.4491C73.7947 11.1525 74.454 10.2434 75.3949 10.2434Z"   fill="#000000" >
</path>
<path d="M56.1677 14.6628L54.9073 14.6628L55.6297 10.1369L54.0178 14.6628L53.1588 14.6628L53.0526 10.1628L52.2939 14.6628L51.1143 14.6628L52.0996 8.77539L53.9116 8.77539L53.9626 12.4202L55.1851 8.77539L57.1424 8.77539L56.1677 14.6628Z"   fill="#FFFFFF" >
</path>
<path d="M86.0641 9.125L85.7847 10.8264C85.4401 10.3728 85.0699 10.0446 84.5811 10.0446C83.9453 10.0446 83.3665 10.5267 82.9876 11.2361C82.46 11.1267 81.9143 10.9411 81.9143 10.9411L81.914 10.9454C81.9566 10.5487 81.9736 10.3068 81.9698 10.2246L80.8123 10.2246C80.6546 11.7066 80.3744 13.2076 80.1554 14.6915L80.0977 15.0133L81.3582 15.0133C81.5284 13.9078 81.6588 12.9898 81.7548 12.2616C82.1854 11.8726 82.4009 11.5331 82.8361 11.5557C82.6434 12.0217 82.5305 12.5583 82.5305 13.1089C82.5305 14.3061 83.1362 15.0958 84.0523 15.0958C84.5142 15.0958 84.8685 14.9366 85.2142 14.5674L85.1552 15.0125L86.3473 15.0125L87.3071 9.12508L86.0641 9.125ZM84.4882 13.9066C84.0591 13.9066 83.8425 13.5892 83.8425 12.9627C83.8425 12.0215 84.2481 11.3541 84.8198 11.3541C85.2527 11.3541 85.4872 11.6842 85.4872 12.2924C85.4872 13.2416 85.0753 13.9066 84.4882 13.9066Z"   fill="#000000" >
</path>
<path     fill="#FFFFFF"  d="M59.2706 12.5303C59.1385 12.5151 59.0801 12.511 58.9895 12.511C58.2752 12.511 57.9138 12.7559 57.9138 13.2395C57.9138 13.5373 58.0903 13.7276 58.3652 13.7276C58.8791 13.7275 59.249 13.2388 59.2706 12.5303ZM60.1874 14.6633L59.1433 14.6633L59.167 14.1678C58.8488 14.5593 58.4234 14.7466 57.8465 14.7466C57.1631 14.7466 56.6951 14.2131 56.6951 13.4384C56.6951 12.2723 57.5094 11.5926 58.9078 11.5926C59.0506 11.5926 59.2338 11.6056 59.4211 11.6296C59.4602 11.4717 59.4705 11.4041 59.4705 11.3187C59.4705 11.0012 59.2511 10.8835 58.6624 10.8835C58.0457 10.8765 57.5374 11.0304 57.3284 11.0983C57.3416 11.0191 57.503 10.0224 57.503 10.0224C58.1307 9.83757 58.5454 9.76833 59.011 9.76833C60.0933 9.76833 60.6667 10.2544 60.6657 11.1719C60.6676 11.419 60.6266 11.7224 60.5633 12.1209C60.4542 12.8143 60.2193 14.3017 60.1874 14.6633ZM77.0902 8.9343L76.8839 10.2126C76.4344 9.9865 76.1079 9.89443 75.7582 9.89443C74.8172 9.89443 74.1577 10.8035 74.1577 12.1C74.1577 12.9937 74.6011 13.5343 75.3336 13.5343C75.644 13.5343 75.9865 13.4379 76.4041 13.232L76.1829 14.5739C75.7183 14.7005 75.4188 14.7466 75.069 14.7466C73.7125 14.7466 72.867 13.7711 72.867 12.2045C72.867 10.0996 74.0348 8.62842 75.7051 8.62842C76.2553 8.62848 76.9054 8.8618 77.0902 8.93431M79.1236 12.5303C78.9916 12.5151 78.9334 12.511 78.8425 12.511C78.1285 12.511 77.7668 12.7559 77.7668 13.2395C77.7668 13.5373 77.9433 13.7276 78.2184 13.7276C78.7318 13.7275 79.102 13.2388 79.1236 12.5303ZM80.0404 14.6633L78.996 14.6633L79.02 14.1678C78.7015 14.5593 78.2764 14.7466 77.6995 14.7466C77.0164 14.7466 76.5481 14.2131 76.5481 13.4384C76.5481 12.2723 77.3627 11.5926 78.7605 11.5926C78.9036 11.5926 79.0866 11.6056 79.274 11.6296C79.3129 11.4717 79.3234 11.4041 79.3234 11.3187C79.3234 11.0012 79.104 10.8835 78.5154 10.8835C77.8989 10.8765 77.3904 11.0304 77.1813 11.0983C77.1945 11.0191 77.3561 10.0224 77.3561 10.0224C77.984 9.83757 78.3983 9.76833 78.8639 9.76833C79.9465 9.76833 80.5197 10.2544 80.5183 11.1719C80.5204 11.419 80.4798 11.7224 80.4162 12.1209C80.3074 12.8143 80.072 14.3017 80.0404 14.6633ZM65.7883 14.5908C65.4431 14.6994 65.1743 14.7466 64.883 14.7466C64.2388 14.7466 63.8872 14.3763 63.8872 13.6945C63.8783 13.4825 63.9802 12.9263 64.0602 12.4183C64.1326 11.9704 64.6063 9.15034 64.6063 9.15034L65.8588 9.15034L65.7126 9.87541L66.3555 9.87541L66.1844 11.0257L65.5393 11.0257C65.3938 11.937 65.186 13.0705 65.1839 13.2212C65.1839 13.4689 65.3159 13.5757 65.6153 13.5757C65.7589 13.5757 65.8699 13.5617 65.955 13.531L65.7883 14.5908ZM69.629 14.5525C69.199 14.684 68.7832 14.7473 68.3435 14.7466C66.9412 14.7452 66.2103 14.0128 66.2103 12.6104C66.2103 10.9729 67.1402 9.76827 68.4025 9.76827C69.4353 9.76827 70.0949 10.4427 70.0949 11.5013C70.0949 11.8527 70.0496 12.1954 69.9407 12.6791L67.4463 12.6791C67.3618 13.3737 67.8064 13.6634 68.5351 13.6634C68.9832 13.6634 69.3879 13.5706 69.8373 13.361L69.629 14.5525ZM68.9247 11.7129C68.9323 11.6134 69.058 10.8582 68.3419 10.8582C67.9431 10.8582 67.6578 11.1632 67.5416 11.7129L68.9247 11.7129ZM60.9434 11.3892C60.9434 11.9949 61.2372 12.4121 61.9033 12.7262C62.4136 12.966 62.4925 13.0374 62.4925 13.2547C62.4925 13.5532 62.2673 13.6879 61.769 13.6879C61.3929 13.6879 61.0431 13.6292 60.6395 13.499C60.6395 13.499 60.4743 14.5544 60.4667 14.6049C60.7526 14.6674 61.0083 14.7245 61.7779 14.7466C63.1078 14.7466 63.7217 14.2403 63.7217 13.1463C63.7217 12.488 63.4649 12.1019 62.8334 11.8117C62.3052 11.5687 62.244 11.5153 62.244 11.2914C62.244 11.0328 62.4539 10.8996 62.8611 10.8996C63.1082 10.8996 63.4461 10.9268 63.7667 10.9724L63.9459 9.86144C63.6198 9.80971 63.1251 9.76827 62.8371 9.76827C61.4271 9.76827 60.9394 10.5041 60.9434 11.3892ZM86.7102 14.6633L85.5179 14.6633L85.5772 14.2176C85.2314 14.5873 84.8772 14.7466 84.4153 14.7466C83.4992 14.7466 82.8937 13.9568 82.8937 12.7596C82.8937 11.1668 83.8328 9.82419 84.9442 9.82419C85.433 9.82419 85.8029 10.0238 86.1473 10.4771L86.427 8.77579L87.67 8.77579L86.7102 14.6633ZM84.8513 13.5569C85.4382 13.5569 85.8504 12.8919 85.8504 11.9433C85.8504 11.3351 85.6158 11.005 85.1827 11.005C84.6113 11.005 84.2053 11.6721 84.2053 12.6136C84.2052 13.24 84.4224 13.5569 84.8513 13.5569ZM81.1755 9.87548C81.0176 11.3575 80.7375 12.8586 80.5183 14.3416L80.4606 14.6634L81.7211 14.6634C82.1719 11.7356 82.281 11.1638 82.9878 11.2354C83.1004 10.6362 83.31 10.1113 83.4662 9.84642C82.9384 9.7365 82.6436 10.0348 82.2578 10.6014C82.2882 10.3565 82.344 10.1185 82.3329 9.87554L81.1755 9.87548ZM70.8015 9.87548C70.6433 11.3575 70.3631 12.8586 70.144 14.3416L70.0866 14.6634L71.3477 14.6634C71.7979 11.7356 71.9068 11.1638 72.6132 11.2354C72.7263 10.6362 72.9359 10.1113 73.0916 9.84642C72.5644 9.7365 72.2693 10.0348 71.8837 10.6014C71.9142 10.3565 71.9694 10.1185 71.9589 9.87554L70.8015 9.87548ZM87.2639 14.2884C87.2636 14.0816 87.4312 13.9137 87.6379 13.9134C87.8455 13.9132 88.0133 14.0807 88.0136 14.2874L88.0136 14.2884C88.0135 14.4954 87.8457 14.6632 87.6387 14.6633C87.4317 14.6632 87.264 14.4954 87.2639 14.2884ZM87.6387 14.5733C87.7959 14.5734 87.9234 14.446 87.9235 14.2888C87.9236 14.1312 87.7962 14.0036 87.639 14.0035C87.4813 14.0036 87.3538 14.1312 87.3537 14.2886C87.3538 14.4458 87.4814 14.5733 87.6387 14.5733ZM87.588 14.4523L87.5112 14.4523L87.5112 14.1237L87.6504 14.1237C87.6793 14.1237 87.7092 14.1242 87.7343 14.1401C87.7612 14.1584 87.7766 14.1897 87.7766 14.2225C87.7766 14.2597 87.7547 14.2944 87.7191 14.3077L87.78 14.4523L87.6946 14.4523L87.6442 14.3223L87.588 14.3223L87.588 14.4523ZM87.588 14.2661L87.6303 14.2661C87.6461 14.2661 87.6635 14.2674 87.6774 14.2597C87.6901 14.2516 87.6965 14.2363 87.6965 14.2216C87.696 14.2081 87.6891 14.1955 87.678 14.1878C87.6648 14.1802 87.6429 14.1824 87.6287 14.1824L87.588 14.1824L87.588 14.2661Z">
</path>
<path     fill="#0E4595"  d="M15.0677 18.3966L17.2249 5.7373L20.6754 5.7373L18.5166 18.3966L15.0677 18.3966ZM30.983 6.01022C30.2995 5.75375 29.2282 5.47852 27.8905 5.47852C24.4809 5.47852 22.0793 7.1955 22.0587 9.6563C22.0395 11.4753 23.7734 12.4902 25.0822 13.0956C26.4254 13.7163 26.8768 14.112 26.8704 14.666C26.8618 15.5146 25.7978 15.9021 24.8059 15.9021C23.425 15.9021 22.6913 15.7102 21.558 15.2378L21.1132 15.0366L20.6291 17.8704C21.435 18.224 22.9253 18.53 24.4728 18.5459C28.1 18.5459 30.4546 16.8485 30.4814 14.2206C30.4943 12.7805 29.575 11.6847 27.5842 10.7811C26.3782 10.1954 25.6396 9.80465 25.6474 9.21164C25.6474 8.68546 26.2726 8.12278 27.6236 8.12278C28.7518 8.10526 29.5694 8.35132 30.2062 8.60779L30.5154 8.75388L30.983 6.01022ZM39.8625 5.73712L37.1962 5.73712C36.3703 5.73712 35.7521 5.96255 35.3894 6.78695L30.2648 18.3883L33.8882 18.3883C33.8882 18.3883 34.4805 16.8284 34.6145 16.4859C35.0105 16.4859 38.5304 16.4913 39.0336 16.4913C39.1368 16.9346 39.4534 18.3883 39.4534 18.3883L42.6553 18.3883L39.8625 5.73674L39.8625 5.73712ZM35.6321 13.9117C35.9176 13.1824 37.0069 10.3729 37.0069 10.3729C36.9866 10.4066 37.2902 9.63996 37.4644 9.16463L37.6976 10.2561C37.6976 10.2561 38.3583 13.278 38.4964 13.9116L35.6321 13.9116L35.6321 13.9117ZM12.1384 5.73712L8.76025 14.3702L8.40037 12.6159C7.77142 10.5935 5.81207 8.40235 3.62158 7.30538L6.71055 18.3764L10.3614 18.3724L15.7937 5.737L12.1384 5.73694">
</path>
<path     fill="#F2AE14"  d="M5.60815 5.73682L0.0441055 5.73682L0 6.00021C4.32877 7.04808 7.19296 9.5804 8.38219 12.6235L7.17233 6.80597C6.96352 6.00435 6.35771 5.76508 5.60828 5.73714">
</path>
</svg>
